<?xml version="1.0" encoding="utf-8"?>
<!-- Generator: Adobe Illustrator 18.0.0, SVG Export Plug-In . SVG Version: 6.00 Build 0)  -->
<!DOCTYPE svg PUBLIC "-//W3C//DTD SVG 1.1//EN" "http://www.w3.org/Graphics/SVG/1.1/DTD/svg11.dtd">
<svg version="1.1" id="Layer_1" xmlns="http://www.w3.org/2000/svg" xmlns:xlink="http://www.w3.org/1999/xlink" x="0px" y="0px"
	 viewBox="0 0 875 875" enable-background="new 0 0 875 875" xml:space="preserve">
<rect y="0.6" fill="#4FBCE4" width="875" height="421.1"/>
<polygon fill="#6D94A2" points="119,479.1 114.3,215.1 130.8,198.7 166.9,241.9 203.9,228.5 192.6,55.1 203.5,29.6 270.5,80.9 
	281.6,462.6 "/>
<polygon fill="#6D94A2" points="529.2,428.1 554.3,58.7 619.5,10 648.6,63.4 634.4,240.9 688.6,181.2 727.9,223.6 720.1,474.2 "/>
<g>
	<polygon fill="#476069" points="82.9,246 127.6,204 146.5,491 94.6,501 	"/>
	<path fill="#476069" d="M131.8,204L150,490c0,0,24.7-1,25.3-4s-10-244.9-10-244.9L131.8,204z"/>
	<path fill="#476069" d="M166.5,91c-0.6,3,13,394.9,13,394.9l48.9-10L201.3,47L166.5,91z"/>
	<path fill="#476069" d="M231.9,473l60.1-31L272,85c0,0-68.3-57-67.2-51S231.9,473,231.9,473z"/>
	<polygon fill="#476069" points="737.7,224.7 692.9,182.7 674.1,469.7 725.9,479.7 	"/>
	<path fill="#476069" d="M688.8,182.7l-18.3,285.9c0,0-24.7-1-25.3-4c-0.6-3,10-244.9,10-244.9L688.8,182.7z"/>
	<path fill="#476069" d="M654.1,69.8c0.6,3-13,394.9-13,394.9l-48.9-10l27.1-428.9L654.1,69.8z"/>
	<path fill="#476069" d="M588.7,451.7l-60.1-31l20-356.9c0,0,68.3-57,67.2-51C614.6,18.8,588.7,451.7,588.7,451.7z"/>
</g>
<rect y="406" fill="#424143" width="875" height="469"/>
<polygon fill="#E3504D" points="875,523.3 138.6,875 0,875 0,474.7 875,418.7 "/>
</svg>
