<?xml version="1.0" encoding="utf-8"?>
<!-- Generator: Adobe Illustrator 18.0.0, SVG Export Plug-In . SVG Version: 6.00 Build 0)  -->
<!DOCTYPE svg PUBLIC "-//W3C//DTD SVG 1.1//EN" "http://www.w3.org/Graphics/SVG/1.1/DTD/svg11.dtd">
<svg version="1.1" id="Layer_1" xmlns="http://www.w3.org/2000/svg" xmlns:xlink="http://www.w3.org/1999/xlink" x="0px" y="0px"
	 viewBox="0 0 626.7 1662.3" enable-background="new 0 0 626.7 1662.3" xml:space="preserve">
<polygon fill="#818285" points="0,1300.3 228.3,1438.3 247,1534.3 12,1654.3 "/>
<g>
	<polygon fill="#FFFFFF" points="150.9,1405.4 170.9,1413.4 278.9,39.4 286.9,25.4 494.9,117.4 520.9,153.4 502.9,153.4 
		462.9,189.4 464.9,201.4 514.9,235.4 578.9,239.4 510.9,195.4 540.9,165.4 494.9,97.4 282.9,5.4 254.9,17.4 	"/>
	<g>
		<path fill="#BDBEC0" d="M153.4,1418.2L272.3,22.6h-12.4h-38.1l-173,1395.5c0,0,86.7,36.5,73,27.4S153.4,1418.2,153.4,1418.2z"/>
		<path fill="#BDBEC0" d="M255.3,32.1c-0.8-5.3,16.2-12.7,31.5-18.2c12.2-4.4,23.2-7.6,23.2-7.6s-48.7-7.6-54.8-6.1
			s-25.8,31.9-25.8,31.9H255.3z"/>
		<path fill="#BDBEC0" d="M269.8,16.1c-2.3-6.7,245.5,102.7,231.8,96.6c-13.7-6.1,48.4,73,50.8,63.8c2.4-9.1-44.7-81.4-44.7-81.4
			L282.7,0l-19.8,7.8L269.8,16.1z"/>
		<path fill="#BDBEC0" d="M585.2,161.3c-4.6,3-71.4-4.6-76,0c-4.6,4.6-39.5,31.9-39.5,35s50.2,31.9,50.2,31.9h65.4l31.9-41
			L585.2,161.3z"/>
	</g>
</g>
<polygon fill="#BDBEC0" points="54.9,1382.1 48.2,1422.8 124.2,1450.8 153.4,1418.2 "/>
<polygon fill="#E7E7E7" stroke="#939598" stroke-miterlimit="10" points="278.9,619.6 107.4,594.4 31.9,940.3 260.9,954.2 "/>
<path fill="#424143" d="M231.8,829.5c0,0,1.5,11,1.6,11.5c0.1,0.5-1,10.8-1,10.8s-4.2,13.7-4.4,13.2s-1.3,1.1-1.7,1.4
	c-0.4,0.3-15.2-0.3-15.2-0.3l-4.4-2l-2.8-4.9c-0.7-0.9-2.9-10.6-2.9-10.6l0.8-8.5l1.3-15l4-7.5l3.6-1.4l15.6,1.6l3.8,4.6
	L231.8,829.5z"/>
<path fill="#424143" d="M137.4,820.8c0,0,1.5,11,1.6,11.5c0.1,0.5-1,10.8-1,10.8s-4.2,13.7-4.4,13.2s-1.3,1.1-1.7,1.4
	c-0.4,0.3-15.2-0.3-15.2-0.3l-4.4-2l-2.8-4.9c-0.7-0.9-2.9-10.6-2.9-10.6l0.8-8.5l1.3-15l4-7.5l3.6-1.4l15.6,1.6l3.8,4.6
	L137.4,820.8z"/>
<polygon fill="#939598" points="253.8,698.2 241.7,839.7 93.2,825.8 112.3,682.5 "/>
<path fill="#A8AAAD" d="M248.6,684.8c-0.4,0,3.8,19,1.3,19.5c-2.5,0.5-132.3-20.5-132.3-20.5l-3.9-16.3L248.6,684.8z"/>
<polygon fill="#6E6F72" points="233.3,687.4 234.9,703.9 134.6,692.7 132.2,675.4 "/>
<path fill="#6E6F72" d="M236.3,715.7c-1.2,0.4-54.3-6.8-54.7-6.8c-0.4,0-0.1,65.2-0.1,65.2l60.8,1.9l6.2-55.1L236.3,715.7z"/>
<path fill="#6E6F72" d="M177,709c-1,2.7-3.6,65.1-3.6,65.1s-58.8-6.9-59.6-7.4s4.5-52.6,4.5-52.6l10.5-7.8L177,709z"/>
<path fill="#6E6F72" d="M240.2,796.7c-3-0.8-20.1-2.4-20.1-2.4s-1.8,14.9-0.5,13.9c1.3-1,24.3,4,24.3,4L240.2,796.7z"/>
<polygon fill="#6E6F72" points="131.9,787.5 132.3,802 114.1,805.6 113.3,789.7 "/>
<polygon fill="#6E6F72" points="245.1,835.4 242.7,844.8 95.8,832.2 93.4,820.3 "/>
</svg>
