<?xml version="1.0" encoding="utf-8"?>
<!-- Generator: Adobe Illustrator 18.0.0, SVG Export Plug-In . SVG Version: 6.00 Build 0)  -->
<!DOCTYPE svg PUBLIC "-//W3C//DTD SVG 1.1//EN" "http://www.w3.org/Graphics/SVG/1.1/DTD/svg11.dtd">
<svg version="1.1" id="Layer_1" xmlns="http://www.w3.org/2000/svg" xmlns:xlink="http://www.w3.org/1999/xlink" x="0px" y="0px"
	 viewBox="0 0 1442.7 1236.1" enable-background="new 0 0 1442.7 1236.1" xml:space="preserve">
<g>
	<path fill="#E3A84E" d="M123,126L51,72l9,63l-60,6l66,51l-52.9,41.2l87.3,730.1L78,1023.1l30,90l24,6l42,75l30,42l153-18l72-60
		l15-66l256.1,5.2l52.9,90.8c0,0,27,6,30,15c3,9,171,0,171,0l63-33l30-75l6-48h150l15,51l36,42l78-9l110.6-72.1l-21-311.5
		l-140.6-165.5l-177-240l-117-213l-33-42l57-42h-57l3-45l-90,45L123,126z"/>
	<g>
		<path fill="#FFFDFB" d="M1398.3,999.7l-17.5-24.3h0c-1.8-57.5-3.1-210-3.1-210s-132.5-164.5-253.3-313.6l-203.1-326L885,112
			l7.2-28l-766.2,84.6c1.4,0-8,41.6-12,73.7l-19,1.8l52.7,777.2l-17.2,1.4l13,53.4l30.9-2.1c3.8,17.5,8.1,36.4,8.1,36.4
			s38.1,80.5,39.3,77c1.2-3.5,9.8,5.4,13,6.9s106.5-16.2,106.5-16.2l29.2-16.3l16.3-32.9c4.3-6.4,13.5-68.1,13.5-68.1l-0.3-1.4
			l116.8-8.7l238.8-16.3c1.3,16.2,2.6,30.4,2.6,30.4s31,97.4,32.8,93.5c1.9-3.8,10.3,7.6,13.7,9.8c3.4,2.1,123.4-2.4,123.4-2.4
			l35.6-14.2l23.6-35.1c5.9-6.6,25.7-75.5,25.7-75.5l-2.5-33.8l231.9,2.9c-0.1,0.7-0.2,1.2-0.3,1.3c-0.4,1.7,2.6,35.5,2.6,35.5
			s14.4,45.3,15.3,43.5c0.9-1.8,4.8,3.5,6.4,4.5c1.6,1,57.4-1.1,57.4-1.1l16.6-6.6l10.9-16.3c2.7-3.1,12-35.1,12-35.1l-1.8-24.2
			l2.4,0L1398.3,999.7z"/>
		<g>
			<path fill="#FFFDFB" d="M1417.7,988.3c-3.5-4.9-7.1-9.8-10.6-14.7c-6.7-9.4-13-20.7-26.3-20.7c7.5,7.5,15,15,22.5,22.5
				c-1.5-48.2-1.9-96.4-2.5-144.6c-0.2-18.7-0.4-37.5-0.6-56.2c0-3.1-0.1-6.1-0.1-9.2c-0.1-8.1-4.8-13.6-9.4-19.5
				c-71.9-89.3-144-178.5-216.1-267.6c-6-7.4-12-14.8-18-22.2c-3-3.7-6-7.4-9-11.1c-1.5-1.8-3-3.7-4.5-5.5c-4-4.9,0.5,0.8,0.5,0.8
				c-0.8-1.2-1.5-2.5-2.3-3.7c-4.8-7.7-9.6-15.3-14.3-23c-18.4-29.6-36.9-59.2-55.3-88.8C1032,261,992.3,197.2,952.5,133.4
				c-3.9-6.2-7.7-12.4-11.6-18.6c-5.5-8.8-15.1-11.3-24.2-14.7c-8.6-3.3-17.2-6.5-25.8-9.8c5.2,9.2,10.5,18.5,15.7,27.7
				c2.4-9.3,4.8-18.6,7.2-28c3.3-12.9-6.7-30.1-21.7-28.5c-33,3.6-66.1,7.3-99.1,10.9c-75.7,8.4-151.5,16.7-227.2,25.1
				c-83.5,9.2-166.9,18.4-250.4,27.6c-56.1,6.2-112.3,12.4-168.4,18.6c-7,0.8-14.1,1.6-21.1,2.3c-10.1,1.1-18.8,6.1-21.7,16.5
				c-2.8,10.1,1.8,19.9,10.3,25.4c0,0,0,0,0.1,0c-3.4-4.5-6.9-9-10.3-13.4c-1.8-5.5-0.6-7.4-0.8-4.8c-0.1,1.8-0.7,5,0.5-3.4
				c-0.3,2-0.7,4.1-1,6.1c-1.1,6.2-2.3,12.3-3.4,18.5c-3.2,17.1-6,34.2-8.2,51.4c7.5-7.5,15-15,22.5-22.5c-6.3,0.6-12.7,1.2-19,1.8
				c-11.5,1.1-23.4,9.4-22.5,22.5c2.2,32.9,4.5,65.8,6.7,98.7c5.1,75.7,10.3,151.4,15.4,227.1C100.3,654,106,738,111.7,822.1
				c3.9,58,7.9,115.9,11.8,173.9c0.6,8.4,1.1,16.9,1.7,25.3c7.5-7.5,15-15,22.5-22.5c-5.7,0.5-11.5,0.9-17.2,1.4
				c-14.7,1.2-25.4,13.4-21.7,28.5c4.3,17.8,8.7,35.6,13,53.4c2.2,9.2,12,17.2,21.7,16.5c10.3-0.7,20.6-1.4,30.9-2.1
				c-7.2-5.5-14.5-11-21.7-16.5c3.1,14.5,4.9,30.4,11.3,43.9c4.6,9.7,9.3,19.4,14,29.1c5.8,12,11.7,24,18,35.8
				c1.7,3.1,3.3,6.4,5.4,9.3c3.5,4.8,7.8,10.1,14.2,11.1c11,1.7,20-1.3,25.9-11c-2.7,2.7-5.4,5.4-8.1,8.1c0.2-0.1,0.3-0.2,0.5-0.2
				c-3.8,1-7.6,2-11.4,3.1c-9.1-0.2-11.7-4.3-7-1.1c4,2.7-4-3.2-0.2-0.2c4.5,3.5,7.8,6.4,13.4,8.2c3.2,1,6.4,1,9.7,0.7
				c8.8-0.8,17.6-2.2,26.4-3.5c20.5-3,41-6.4,61.4-9.8c6.3-1.1,12.7-2.1,19-3.2c5.8-1,10.9-4.6,16-7.4c6.9-3.8,13.7-7.7,20.6-11.5
				c8.9-4.9,12.8-17.7,17.1-26.3c3.5-7,7.1-14,10.1-21.2c3-7.3,4.1-15.6,5.6-23.3c2-10.3,3.7-20.6,5.3-30.9
				c1.4-8.6,3.5-17.6,1.7-26.2c-7.2,9.5-14.5,19-21.7,28.5c50.1-3.7,100.2-7.6,150.3-11c68.1-4.7,136.1-9.3,204.2-14
				c0.4,0,0.7-0.1,1.1-0.1c-7.5-7.5-15-15-22.5-22.5c1.1,13.8,0.9,28.6,5.1,41.9c3.9,12.2,7.9,24.5,11.9,36.7
				c4.5,13.6,9,27.1,14,40.5c1.9,5.1,3.8,10.3,6.3,15.2c1.9,3.7,5.3,7.2,8.9,9.3c12.2,6.9,23.7,1.4,31.4-8.7
				c-2.7,2.7-5.4,5.4-8.1,8.1c0.2-0.1,0.3-0.2,0.5-0.2c-3.8,1-7.6,2-11.4,3.1c-3.1-0.8-6.1-1.6-9.2-2.4c-3.1-2.5-3.7-2.9-1.8-1.3
				c1,0.9,2,1.9,2.9,2.9c2.8,2.9,5.5,5.3,8.9,7.7c4.3,3.1,9.4,3.6,14.5,3.9c6.1,0.4,12.4,0.2,18.5,0.2c20.7-0.2,41.3-0.9,62-1.5
				c13.4-0.4,26.8-0.9,40.2-1.4c7.5-0.3,14.3-4,21.1-6.7c6.9-2.8,13.8-5.5,20.8-8.3c10.6-4.2,15.3-13.1,21.3-22.1
				c4.7-6.9,9.3-13.9,14-20.8c0.5-0.7,0.9-1.4,1.4-2.1c1.1-1.6,2.2-2.5-3,3.9c1.3-1.5,2.8-3.4,4-5.2c2.3-3.5,3.7-7.9,5.2-11.6
				c3.3-8,6-16.3,8.7-24.6c4.7-14.4,9-28.8,13.2-43.3c1.8-6.2,0.4-13.2,0-19.6c-0.5-6.9-1-13.8-1.5-20.7c-7.5,7.5-15,15-22.5,22.5
				c65.1,0.8,130.3,1.6,195.4,2.5c12.2,0.2,24.3,0.3,36.5,0.5c-7.2-9.5-14.5-19-21.7-28.5c-1.9,9.8-0.4,19.7,0.4,29.6
				c0.6,6.9,0.5,14.7,2.6,21.2c2.8,8.6,5.6,17.2,8.5,25.8c3.2,9.5,6.3,24.7,16.4,29.2c10,4.5,18.8,3.6,27.3-3.5
				c0.2-0.1,0.3-0.3,0.5-0.4c-7.3,1.9-14.6,3.9-21.9,5.8c-7.4-5-9.6-6.1-6.5-3.2c0.8,0.8,1.6,1.6,2.5,2.3c5.7,4.6,9.5,6.1,16.5,6.7
				c2.6,0.2,5.2,0.2,7.9,0.1c9.7-0.1,19.5-0.4,29.2-0.7c6.5-0.2,13.1-0.4,19.6-0.7c7.9-0.3,15.5-4.5,22.7-7.4
				c11.6-4.6,17.2-15.9,23.9-25.9c5-7.4,7.3-17.1,10-25.5c2.2-7,6-15.6,5.5-23.1c-0.6-7.6-1.1-15.3-1.7-22.9
				c-7.5,7.5-15,15-22.5,22.5c8.2,0.1,15.5-3.2,23.1-5.8c6.6-2.3,13.1-4.5,19.7-6.8c11.6-4,19.1-15.3,15.7-27.7
				c-3.1-11.3-16.1-19.7-27.7-15.7c-6.2,2.1-12.3,4.2-18.5,6.3c-4,1.4-8,2.7-11.9,4.1c-1.1,0.4-2.1,0.7-3.2,1.1
				c-3.7,1.3,8.5-0.5,2.7-0.5c-11.6-0.1-23.4,10.4-22.5,22.5c0.5,7.1,1,14.2,1.6,21.4c0.6,7.6,2.2-7.2,0.4-1.1
				c-1.1,3.7-2.2,7.4-3.4,11.2c-1.4,4.6-2.9,9.2-4.5,13.8c-0.7,1.9-3.3,8.4,0.1,0.3c-0.4,0.9-0.8,1.8-1.4,2.6
				c-3.6,5.4-7.3,10.8-10.9,16.2c4.5-3.4,9-6.9,13.4-10.3c-2.6,1-5.1,2-7.7,3.1c-1.9,0.7-3.7,1.5-5.6,2.2c-3.8,1.5-5.7,0.8,2.7,0.5
				c-5,0.2-9.9,0.4-14.9,0.5c-8.8,0.3-17.7,0.6-26.5,0.7c-3.4,0.1-6.8,0.1-10.2,0.1c-1.2,0-2.3,0-3.5,0c-4.5-0.1,5.5,1.3,3.7,0.6
				c3.3,1.9,6.6,3.9,9.9,5.8c-3.4-2.7-6.1-5.7-9.8-8.2c-9.2-6.3-20.7-2.7-28.5,3.8c9.1-1.2,18.2-2.3,27.3-3.5
				c7,8.4,9.5,10.9,7.6,7.4c-0.8-1.5-1.9-4.6,1.4,3.5c-0.6-1.5-1.2-3.1-1.8-4.7c-1.5-4-2.8-8.1-4.2-12.1c-2.5-7.6-5-15.1-7.4-22.7
				c-1.7-5.2,0.7,8.7,0.1,2.4c-0.3-3.7-0.6-7.5-0.9-11.2c-0.4-4.6-0.7-9.2-1.1-13.8c-0.1-1.9-0.3-3.8-0.4-5.7
				c-0.1-2.6,0.8-5.3-0.6,1.9c2.8-14.3-6.2-28.3-21.7-28.5c-65.1-0.8-130.3-1.6-195.4-2.5c-12.2-0.2-24.3-0.3-36.5-0.5
				c-11.6-0.1-23.4,10.4-22.5,22.5c0.4,6.1,0.9,12.1,1.3,18.2c0.3,3.8,0.6,7.5,0.8,11.3c0.4,5.3-0.9,5.4,1-1.4
				c-4,13.7-8.1,27.3-12.5,40.9c-2.6,8.2-5.4,16.5-8.5,24.5c-2.2,5.7,1-2.2,0.2-0.4c-0.5,1-0.9,2-1.5,3c-0.2,0.3-0.3,0.6-0.5,0.9
				c-0.1,0.1-0.2,0.2-0.2,0.4c4.2-5.5,4.1-5.3-0.4,0.6c-0.3,0.5-0.6,1-1,1.4c-7.5,11.2-15.1,22.4-22.6,33.6c4.5-3.4,9-6.9,13.4-10.3
				c-6.9,2.8-13.8,5.5-20.8,8.3c-4,1.6-7.9,3.1-11.9,4.7c-0.9,0.4-1.8,0.7-2.8,1.1c-2.1,0.9,8.4-0.8,5.1-0.7
				c-14.1,0.5-28.2,1-42.3,1.5c-20.5,0.7-41,1.3-61.5,1.5c-5.7,0.1-11.5,0.2-17.3-0.2c1.5,0.1,6.6,1.3,9.7,2.8
				c5,2.5,3.6,2.9,1.5,0.8c-1-1-1.9-2-2.9-2.9c-9.6-9.8-20.9-14.4-34.1-8.4c-4.1,1.9-6.5,5.4-9,8.9c2.7-2.7,5.4-5.4,8.1-8.1
				c0,0,0,0-0.1,0c3.8-1,7.6-2,11.4-3.1c0,0-0.1,0-0.1,0c3.8,1,7.6,2,11.4,3.1c3.2,1.9,5.7,4.4,7.6,7.6c-0.1-0.1-0.2-0.3-0.3-0.5
				c-0.3-0.4-0.5-0.9-0.7-1.4c-2-4.3,2.7,6.7,0.2,0.4c-1.8-4.6-3.5-9.3-5.2-14c-4.5-12.8-8.8-25.7-13-38.6
				c-3.2-9.8-6.4-19.6-9.6-29.5c-1.3-4.2-1.4-7.7-0.6,1.2c-0.9-10-1.7-20-2.5-30c-1-11.5-9.5-23.4-22.5-22.5
				c-64.8,4.4-129.6,8.9-194.4,13.3c-53,3.6-106,7.6-159,11.6c-0.7,0.1-1.5,0.1-2.2,0.2c-15.1,1.1-24.9,13.5-21.7,28.5
				c0.1,0.5,0.2,0.9,0.3,1.4c0-4,0-8,0-12c-2.9,19.4-5.8,38.9-10.3,58c-0.5,2.1-1,4.1-1.6,6.1c-1.7,5.8,1.8-3.2,0.7-1.4
				c-1.6,2.6-2.7,5.5-4.1,8.2c-4.1,8.2-8.2,16.5-12.2,24.7c2.7-2.7,5.4-5.4,8.1-8.1c-5.8,3.2-11.6,6.5-17.4,9.7
				c-3.3,1.8-6.6,3.7-9.9,5.5c-5.3,3,6.3-1.7,2.8-1.1c-13,2.2-26,4.4-39.1,6.5c-17.6,2.9-35.1,5.8-52.8,8.2
				c-3.1,0.4,6.9-0.9,0.9-0.1c-1.4,0.2-2.7,0.3-4.1,0.5c-1.4,0.2-2.9,0.3-4.4,0.3c3.6,0,7,0.9,10.2,2.6c-1.2-0.7-4.4-3.3,0.7,0.7
				c-3.2-2.5-6.3-5.2-9.8-7.3c-11.6-6.9-27.2-3.8-34,8.3c2.7-2.7,5.4-5.4,8.1-8.1c0,0,0,0-0.1,0c5.8-0.8,11.6-1.5,17.3-2.3
				c10.7,1.7,12.1,8.5,9.3,5.3c5.5,6.4,3.6,4.9,2.4,3c-0.9-1.4-1.7-2.9-2.5-4.3c-2.3-4.2-4.5-8.5-6.7-12.8
				c-5.6-11-11-22.2-16.4-33.3c-3.7-7.7-7.5-15.5-11.1-23.2c-0.2-0.5-0.4-0.9-0.6-1.4c4.7,9.9,1.7,2.9,0.9-0.7
				c-2.3-10.1-4.5-20.3-6.7-30.4c-2-9.2-12.2-17.2-21.7-16.5c-10.3,0.7-20.6,1.4-30.9,2.1c7.2,5.5,14.5,11,21.7,16.5
				c-4.3-17.8-8.7-35.6-13-53.4c-7.2,9.5-14.5,19-21.7,28.5c5.7-0.5,11.5-0.9,17.2-1.4c11.6-0.9,23.4-9.5,22.5-22.5
				c-2.2-32.9-4.5-65.8-6.7-98.7c-5.1-75.7-10.3-151.4-15.4-227.1c-5.7-84.1-11.4-168.1-17.1-252.2c-3.9-58-7.9-115.9-11.8-173.9
				c-0.6-8.4-1.1-16.9-1.7-25.3c-7.5,7.5-15,15-22.5,22.5c6.3-0.6,12.7-1.2,19-1.8c13.4-1.3,20.8-9.4,22.5-22.5
				c0.8-6.5-0.7,4.7,0.2-1.9c0.3-2,0.6-4,0.9-6c0.7-4.7,1.5-9.5,2.3-14.2c1.5-8.6,3.1-17.2,4.7-25.8c2.9-15.8,9.3-34.4-7.3-45.2
				c-3.8,14-7.6,28-11.4,41.9c33-3.6,66.1-7.3,99.1-10.9c75.7-8.4,151.5-16.7,227.2-25.1c83.5-9.2,166.9-18.4,250.4-27.6
				c56.1-6.2,112.3-12.4,168.4-18.6c7-0.8,14.1-1.6,21.1-2.3c-7.2-9.5-14.5-19-21.7-28.5c-2.4,9.3-4.8,18.6-7.2,28
				c-3.3,12.7,4.1,23.3,15.7,27.7c12.1,4.6,24.2,9.2,36.3,13.8c-4.5-3.4-9-6.9-13.4-10.3c28.9,46.4,57.9,92.9,86.8,139.3
				c37,59.3,73.9,118.7,110.9,178c5.4,8.6,11.3,16.2,17.8,24.2c24.8,30.6,49.6,61.2,74.4,91.9c41.7,51.6,83.4,103.3,125.1,154.9
				c15,18.6,30,37.2,44.9,55.8c-2.2-5.3-4.4-10.6-6.6-15.9c0.6,70,0.9,140,3.1,210c0.4,12.3,9.9,22.5,22.5,22.5c0,0,0,0,0,0
				c-6.5-3.7-13-7.4-19.4-11.1c5.8,8.1,11.7,16.2,17.5,24.3c7.1,9.9,19.4,14.7,30.8,8.1C1419.4,1013.3,1424.9,998.3,1417.7,988.3z"
				/>
		</g>
	</g>
	<g>
		<path fill="#424143" d="M171.4,973.4c0,0-3.1,69.1-3.4,72.4c-0.3,3.3,13.7,65.3,13.7,65.3s38.1,80.5,39.3,77
			c1.2-3.5,9.8,5.4,13,6.9c3.2,1.5,106.5-16.2,106.5-16.2l29.2-16.3l16.3-32.9c4.3-6.4,13.5-68.1,13.5-68.1l-10.9-51.8l-19.2-91.2
			l-33.2-42.1l-25.9-5.5l-108.2,24.3l-23.4,32L171.4,973.4z"/>
		<path fill="#6E6F72" d="M342.6,909.4c-4.9-1.3-15.5,10.8-15.5,10.8l-1.9,44.1l6.4,71l20.9,68.1c0,0,11.8,10.4,17.3,9.2
			s13.9-34.6,13.9-34.6l-0.7-40L370,976l-13.8-48.4L342.6,909.4z"/>
		<path fill="#424143" d="M766.7,907c0,0-14.1,78.2-14.9,81.9c-0.8,3.7,5.6,76.4,5.6,76.4s31,97.4,32.8,93.5s10.3,7.6,13.7,9.8
			c3.4,2.1,123.4-2.4,123.4-2.4L963,1152l23.6-35.1c5.9-6.6,25.7-75.5,25.7-75.5l-4.4-60.7L1000,874l-31.2-53l-28.6-10.2
			l-126.6,11.4l-31.5,32.9L766.7,907z"/>
		<path fill="#6E6F72" d="M971,861.9c-5.4-2.2-19.3,10-19.3,10l-9,49.9l-3.6,81.8l13.3,80.7c0,0,11.8,13.6,18.3,13
			s21.1-37.3,21.1-37.3l5.3-45.6l-5.3-72.4l-8.2-57.1L971,861.9z"/>
		<path fill="#424143" d="M1248.4,973.8c0,0-6.6,36.3-6.9,38.1c-0.4,1.7,2.6,35.5,2.6,35.5s14.4,45.3,15.3,43.5
			c0.9-1.8,4.8,3.5,6.4,4.5c1.6,1,57.4-1.1,57.4-1.1l16.6-6.6l10.9-16.3c2.7-3.1,12-35.1,12-35.1l-2.1-28.2l-3.6-49.6l-14.5-24.6
			l-13.3-4.7l-58.9,5.3l-14.6,15.3L1248.4,973.8z"/>
		<path fill="#6E6F72" d="M1343.3,952.8c-2.5-1-9,4.6-9,4.6l-4.2,23.2l-1.7,38l6.2,37.5c0,0,5.5,6.3,8.5,6.1
			c3-0.3,9.8-17.3,9.8-17.3l2.5-21.2L1353,990l-3.8-26.6L1343.3,952.8z"/>
		<polygon fill="#FFFDFB" points="93.5,255.7 148,1059 991.4,994.6 897.4,180.2 		"/>
		<path fill="#6D94A2" d="M125.4,169.2c2.3,0-23.5,107.6-9.5,110.5s751.9-103.2,751.9-103.2l23.8-91.8L125.4,169.2z"/>
		<path fill="#6D94A2" d="M920.6,126.4l-58.3-22.1c0,0-14.9,70.1-7.9,70c6.9-0.1,381.9,496.7,381.9,496.7l11.3-11.9l-12.1-26.9
			L920.6,126.4z"/>
		<path fill="#FFFDFB" d="M892.4,226.6l14,746.8l14.5,33.1c0,0,462.8-2,460.4-9.1S1377,766,1377,766S936.3,218.6,929.3,216.3
			C922.3,214.1,892.4,226.6,892.4,226.6z"/>
		<polygon fill="#A8AAAD" points="164.6,1024.6 184.1,1076 925.9,1020.7 975.5,952.9 		"/>
		<polygon fill="#818285" points="1380.1,976 1397.6,1000.3 1363.1,1012.1 921,1006.5 975.5,952.9 		"/>
		<polygon fill="#476069" points="211.4,185.4 201,278.9 770.9,225 786,127.3 		"/>
		<path fill="#6D94A2" d="M191.9,345.6c6.9,2.3,308.3-33.4,310.6-33.4s-5.8,369.6-5.8,369.6l-344.9,5L122,373.6L191.9,345.6z"/>
		<path fill="#6D94A2" d="M528.7,313.2c5.7,15.3,13.7,369.6,13.7,369.6s334-33.3,338.5-35.8c4.5-2.5-20.5-298.6-20.5-298.6
			l-58.8-45.2L528.7,313.2z"/>
		<path fill="#4FBCE4" d="M146.7,794.4c17-4.2,114.4-11.9,114.4-11.9s2.7,74,1.2,74.2c-9.2,1.2-129.4,18.5-129.4,18.5L146.7,794.4z"
			/>
		<polygon fill="#4FBCE4" points="786.6,752.6 783.1,835.3 885.9,857.5 892,767 		"/>
		<path fill="#6D94A2" d="M935.6,676.8c7,2.2,408.6,194.8,410.9,190s-13.7-111.9-13.7-111.9s-415.3-419.5-415.7-423
			s-22.2,23.5-22,33.1S928.6,674.6,935.6,676.8z"/>
		<g id="bike_1_">
			<path fill="none" stroke="#231F20" stroke-width="8" stroke-miterlimit="10" d="M269.4,968.6c0,1.3,21,29.7,21,29.7l39.4,27.1
				c0,0,53.7-1.5,53.7-1.1c0,0.4,39.8-20.6,39.8-20.6s21.6-31.6,21.9-33.4c0.3-1.8,16.2-39.7,16.9-39.9c0.7-0.2-17-63.9-17-63.9
				s-40.9-36.7-42-36.7c-1.1,0-55.9-9.4-58.6-7.6c-2.7,1.8-54.6,18.5-57.2,21.6c-2.6,3.1-25.3,53.9-25.3,53.9l-3.3,46.5L269.4,968.6
				z"/>
			<path fill="none" stroke="#231F20" stroke-width="8" stroke-miterlimit="10" d="M582.1,939.7c0,1.3,21,29.7,21,29.7l39.4,27.1
				c0,0,53.7-1.5,53.7-1.1c0,0.4,39.8-20.6,39.8-20.6s21.6-31.6,21.9-33.4c0.3-1.8,16.2-39.7,16.9-39.9c0.7-0.2-17-63.9-17-63.9
				S717,801,715.9,801s-55.9-9.4-58.6-7.6c-2.7,1.8-54.6,18.5-57.2,21.6c-2.6,3.1-25.3,53.9-25.3,53.9l-3.3,46.5L582.1,939.7z"/>
			<path fill="#E3504D" d="M371.6,760.3l65.5-1.3c0,0,37.5-16.6,31.8-16.7c-5.1-0.1-78.1-7.4-78.1-7.4L371.6,760.3z"/>
			<path fill="#E3504D" d="M408.5,747c0.1,3.4-61.4,190.2-61.4,190.2l9.8-4L429,753.9L408.5,747z"/>
			<polygon fill="#E3504D" points="414.6,778.4 621.7,755.3 616.1,774.4 410.4,785.3 			"/>
			<path fill="#E3504D" d="M410.3,777.2c0,0,92.5,120,95,116.8c2.4-3.2,12.9-11.7,12.9-11.7S412.6,768.9,413.8,766.9
				C415,765,410.3,777.2,410.3,777.2z"/>
			<polygon fill="#E3504D" points="357.9,920.5 512.8,878.3 516.8,892.9 353.1,929.5 			"/>
			<polygon fill="#E3504D" points="608.8,738.8 614.6,789.1 635.4,780.9 621.6,730.3 			"/>
			<path fill="#E3504D" d="M506.8,879.3c4.7-4.2,102.5-116.4,102.5-116.4s16.3,18.7,12.9,18.3c-3.4-0.4-105.8,112.6-105.8,112.6
				l-17.4-6.1L506.8,879.3z"/>
			<polygon fill="#E3504D" points="627.3,774.2 667.6,881.8 656,885.2 616.1,774.4 			"/>
			<path fill="#E3504D" d="M605.4,730.6l46.7-16.2c0,0-0.8,21.7-2.7,21.7c-1.9,0-32.5,14-33.8,12.1
				C614.4,746.4,605.4,730.6,605.4,730.6z"/>
			<path fill="#E3504D" d="M625.2,697c0,0-6.8,14.2-3.9,14.7c2.9,0.6,27.4,19.3,27.4,19.3l10.9-13.1l-7.6-11.3L625.2,697z"/>
			<polygon fill="#E3504D" points="628.4,701.4 585.6,697.8 585.9,711.9 620.7,715 628.5,709.7 			"/>
			<path fill="#E3504D" d="M658.5,874c0,0-10.8,16-9.5,15c1.4-1,11.7,7.4,13.1,6.9c1.4-0.5,14.6-11.3,14.6-11.3l-7.6-10.9L658.5,874
				z"/>
			<path fill="#E3504D" d="M344.8,916.1c0,0,5-3.7,8-4.5c2.9-0.7,9.7-2.5,12,1.9c2.3,4.4,5.3,15.6,5.3,15.6L357.9,945l-17.3-7.6
				l-3-9.1L344.8,916.1z"/>
			<polygon fill="#E3504D" points="516.8,878.5 554,890.1 550.1,898.1 514.5,883.2 			"/>
			<path fill="#E3504D" d="M538.2,888.2c1,2.9,0.4,22,0.4,22l28.1-9.2l-3-11.1l-11.5-9.2L538.2,888.2z"/>
		</g>
		<polygon fill="#6E6F72" points="129.9,1023.3 142.8,1076.8 976.8,1019.7 991.7,952.6 		"/>
	</g>
</g>
</svg>
